<?xml version="1.0" standalone="no"?>
<!DOCTYPE svg PUBLIC "-//W3C//DTD SVG 20010904//EN"
 "http://www.w3.org/TR/2001/REC-SVG-20010904/DTD/svg10.dtd">
<svg version="1.0" xmlns="http://www.w3.org/2000/svg"
 width="700.000000pt" height="700.000000pt" viewBox="0 0 700.000000 700.000000"
 preserveAspectRatio="xMidYMid meet">
<metadata>
Created by potrace 1.14, written by Peter Selinger 2001-2017
</metadata>
<g transform="translate(0.000000,700.000000) scale(0.100000,-0.100000)"
fill="#000000" stroke="none">
<path d="M3327 6124 c-1 -1 -67 -5 -147 -9 -80 -4 -161 -8 -180 -10 -107 -9
-183 -17 -245 -25 -38 -5 -90 -12 -115 -15 -40 -5 -165 -26 -245 -41 -83 -15
-188 -37 -260 -55 -44 -11 -87 -22 -95 -24 -104 -24 -314 -90 -446 -138 -807
-298 -1355 -758 -1532 -1282 -18 -54 -27 -89 -49 -180 -4 -16 -8 -430 -10
-920 -2 -720 0 -903 11 -960 45 -226 160 -427 359 -624 389 -384 998 -666
1807 -837 70 -14 292 -53 339 -58 30 -4 64 -9 75 -11 12 -2 46 -7 77 -10 31
-3 65 -7 75 -9 11 -2 60 -7 109 -11 50 -4 106 -9 125 -11 267 -23 750 -22
1050 1 113 8 456 48 520 59 14 3 66 12 115 20 50 9 101 18 115 21 14 4 36 8
50 11 14 3 66 14 115 25 50 12 97 22 106 24 10 2 68 18 130 35 450 125 821
287 1129 493 58 39 107 73 110 76 3 3 25 22 50 41 274 210 476 516 518 780 9
56 9 1778 1 1840 -92 650 -781 1246 -1804 1561 -264 82 -584 153 -825 184 -25
3 -56 8 -70 10 -14 2 -54 7 -90 10 -36 3 -83 8 -105 10 -141 17 -355 27 -578
29 -103 1 -189 1 -190 0z m638 -443 c55 -6 123 -13 150 -16 64 -6 123 -14 155
-20 14 -2 43 -7 65 -10 39 -5 60 -9 115 -20 29 -5 70 -13 120 -21 75 -13 421
-104 525 -139 693 -232 1195 -582 1379 -960 64 -132 87 -222 87 -345 -1 -216
-110 -438 -320 -647 -133 -133 -254 -222 -491 -363 -22 -13 -207 -104 -265
-130 -239 -108 -647 -229 -940 -280 -33 -5 -69 -12 -81 -14 -12 -2 -45 -7 -75
-11 -30 -4 -56 -8 -59 -10 -3 -1 -32 -6 -65 -9 -33 -4 -76 -8 -95 -11 -75 -9
-128 -15 -211 -20 -297 -21 -674 -21 -919 0 -36 3 -94 8 -130 11 -36 3 -76 7
-90 9 -14 3 -50 7 -80 10 -30 3 -77 10 -105 15 -27 5 -66 11 -85 14 -19 3 -60
10 -90 16 -30 6 -71 13 -90 16 -19 3 -38 8 -41 10 -4 2 -24 6 -45 10 -69 11
-297 72 -425 115 -657 217 -1131 547 -1323 919 -40 77 -66 146 -82 211 -4 13
-8 74 -10 135 -4 134 14 213 81 350 128 262 409 512 806 718 206 106 481 218
669 271 68 19 243 67 260 70 151 34 262 57 290 61 19 2 42 6 50 9 8 2 38 7 65
10 28 4 77 11 111 16 33 5 85 11 115 14 30 3 68 7 84 10 17 2 84 7 150 11 66
3 122 8 124 10 9 8 620 -5 716 -15z m-3490 -2515 c93 -90 251 -216 355 -282
l45 -29 0 -432 c0 -238 -1 -433 -3 -433 -11 0 -127 97 -186 155 -123 122 -199
242 -231 366 -14 52 -17 120 -19 377 0 171 0 312 1 312 2 0 18 -15 38 -34z
m6089 -293 c-1 -260 -4 -319 -19 -368 -35 -123 -117 -250 -234 -363 -76 -74
-180 -157 -182 -145 -1 4 -2 198 -3 431 l-1 423 90 65 c50 35 100 72 110 82
11 9 34 28 50 41 33 25 152 129 169 147 6 7 13 8 16 4 3 -5 4 -147 4 -317z
m-5014 -351 c74 -28 199 -70 278 -94 l142 -43 0 -442 0 -443 -27 11 c-16 6
-28 10 -28 9 0 -10 -328 100 -455 152 -52 22 -107 44 -121 49 l-26 10 0 437
c-1 240 1 440 3 444 2 3 25 -4 52 -17 26 -12 108 -45 182 -73z m4137 -344 l-2
-443 -30 -14 c-113 -54 -404 -159 -552 -199 l-73 -19 0 443 c0 344 3 444 12
444 40 0 418 131 563 194 44 20 81 36 82 36 1 0 1 -199 0 -442z m-3217 98 c25
-4 56 -9 70 -12 28 -5 71 -11 145 -19 28 -3 61 -8 75 -10 14 -2 59 -6 100 -10
41 -3 95 -8 120 -10 25 -2 83 -7 130 -10 105 -7 162 -14 168 -19 2 -3 4 -181
3 -398 0 -503 0 -480 -8 -475 -7 4 -92 12 -248 22 -165 12 -421 38 -490 51
-11 2 -40 6 -65 9 -25 3 -49 11 -55 19 -6 8 -9 166 -8 432 1 478 1 447 11 440
4 -2 28 -7 52 -10z m2124 -447 c0 -230 -3 -421 -5 -423 -2 -2 -26 -7 -54 -10
-27 -4 -61 -9 -75 -11 -36 -5 -153 -19 -251 -30 -25 -2 -83 -7 -127 -10 -45
-3 -96 -8 -114 -10 -18 -2 -81 -7 -140 -11 l-108 -6 0 163 c-2 444 0 702 4
706 5 5 45 9 176 18 47 3 105 7 130 10 25 2 74 7 110 10 36 3 81 8 100 11 19
2 55 6 80 9 76 8 132 16 200 28 60 12 65 11 70 -6 3 -10 5 -207 4 -438z"/>
<path d="M3218 5356 c-1 -2 -57 -7 -123 -10 -66 -4 -133 -9 -150 -10 -16 -2
-64 -7 -105 -10 -41 -4 -86 -9 -100 -11 -14 -2 -52 -6 -85 -10 -33 -4 -62 -9
-65 -10 -3 -2 -30 -6 -60 -10 -30 -3 -62 -8 -70 -10 -8 -2 -31 -7 -50 -10 -19
-3 -53 -10 -75 -15 -22 -5 -56 -12 -75 -15 -59 -10 -300 -72 -400 -103 -155
-48 -294 -111 -467 -213 -476 -280 -643 -648 -450 -992 146 -262 458 -474 928
-630 98 -33 304 -91 359 -101 14 -2 45 -9 70 -15 80 -18 304 -56 385 -66 28
-3 64 -8 80 -10 69 -11 183 -20 360 -31 235 -15 768 -8 900 11 17 2 59 7 95
10 65 5 104 9 190 21 98 12 118 15 195 29 44 8 96 17 115 20 113 19 428 100
510 130 19 7 69 25 110 40 342 124 628 319 772 529 173 251 142 557 -79 792
-219 233 -540 411 -931 515 -62 17 -120 32 -130 34 -9 2 -55 12 -102 23 -128
30 -324 63 -480 82 -52 6 -108 13 -125 15 -16 2 -68 7 -115 11 -47 3 -101 8
-120 10 -40 5 -706 14 -712 10z m482 -441 c113 -3 223 -7 245 -9 160 -13 196
-17 295 -31 222 -31 237 -34 363 -61 39 -8 80 -17 89 -19 214 -45 502 -149
673 -243 266 -146 371 -301 293 -433 -50 -84 -105 -132 -263 -226 -288 -171
-654 -280 -1170 -348 -29 -4 -93 -11 -180 -20 -251 -27 -856 -27 -1085 0 -19
2 -62 7 -95 10 -472 48 -941 175 -1211 327 -91 52 -206 132 -248 173 -58 56
-99 141 -92 188 33 204 407 426 938 556 186 46 433 91 583 105 22 3 72 8 110
11 120 13 135 14 330 21 105 3 192 8 193 10 2 1 9 1 15 -1 7 -2 104 -6 217
-10z"/>
</g>
</svg>
